<?xml version="1.0" encoding="UTF-8" standalone="no"?>
<!-- Created with Inkscape (http://www.inkscape.org/) -->

<svg
   xmlns:dc="http://purl.org/dc/elements/1.1/"
   xmlns:cc="http://creativecommons.org/ns#"
   xmlns:rdf="http://www.w3.org/1999/02/22-rdf-syntax-ns#"
   xmlns:svg="http://www.w3.org/2000/svg"
   xmlns="http://www.w3.org/2000/svg"
   xmlns:sodipodi="http://sodipodi.sourceforge.net/DTD/sodipodi-0.dtd"
   xmlns:inkscape="http://www.inkscape.org/namespaces/inkscape"
   width="210mm"
   height="297mm"
   viewBox="0 0 210 297"
   version="1.1"
   id="svg8"
   inkscape:version="0.92.3 (2405546, 2018-03-11)"
   sodipodi:docname="animais.svg">
  <defs
     id="defs2" />
  <sodipodi:namedview
     id="base"
     pagecolor="#ffffff"
     bordercolor="#666666"
     borderopacity="1.0"
     inkscape:pageopacity="0.0"
     inkscape:pageshadow="2"
     inkscape:zoom="0.7"
     inkscape:cx="164.49446"
     inkscape:cy="441.27479"
     inkscape:document-units="mm"
     inkscape:current-layer="layer1"
     showgrid="false"
     inkscape:window-width="1920"
     inkscape:window-height="986"
     inkscape:window-x="-11"
     inkscape:window-y="1609"
     inkscape:window-maximized="1"
     showguides="false" />
  <metadata
     id="metadata5">
    <rdf:RDF>
      <cc:Work
         rdf:about="">
        <dc:format>image/svg+xml</dc:format>
        <dc:type
           rdf:resource="http://purl.org/dc/dcmitype/StillImage" />
        <dc:title />
      </cc:Work>
    </rdf:RDF>
  </metadata>
  <g
     inkscape:label="Camada 1"
     inkscape:groupmode="layer"
     id="layer1">
    <circle
       style="opacity:1;fill:#c5c5c5;fill-opacity:1;stroke:#3b2314;stroke-width:0.60000002;stroke-linecap:round;stroke-linejoin:round;stroke-miterlimit:4;stroke-dasharray:none;stroke-opacity:1"
       id="path880"
       cx="106.58929"
       cy="154.50298"
       r="87.3125" />
    <g
       id="g957"
       transform="matrix(0.66681205,0,0,0.75601213,5.6882439,32.246887)"
       inkscape:export-xdpi="252.61502"
       inkscape:export-ydpi="252.61502">
      <path
         sodipodi:nodetypes="ssssccccss"
         inkscape:connector-curvature="0"
         id="path859"
         d="m 133.61459,124.45387 c 0,11.89878 -16.24566,21.54465 -36.285717,21.54465 -20.040051,0 -36.285717,-9.64587 -36.285714,-21.54465 10e-7,-3.9096 -0.414571,-11.03593 4.580931,-13.38986 1.489718,-0.70197 -5.517033,-8.91317 1.232835,-27.38805 6.837018,-3.892625 16.344447,11.978708 17.487685,11.20279 4.610492,-5.354965 21.46563,-6.35683 26.21593,0.829254 0.82502,1.867404 9.5246,-14.249062 18.07122,-12.312598 6.34739,8.084143 -0.57951,27.342034 0.14662,27.997564 4.08909,3.69154 4.83621,9.24282 4.83621,13.0609 z"
         style="opacity:1;fill:#eefcad;fill-opacity:1;stroke:#3f0202;stroke-width:2.77975726;stroke-linecap:round;stroke-linejoin:round;stroke-miterlimit:4;stroke-dasharray:none;stroke-opacity:1" />
      <path
         sodipodi:nodetypes="cc"
         inkscape:connector-curvature="0"
         id="path862"
         d="m 74.366815,119.1622 c 2.942983,-7.55002 9.10525,-5.44219 15.780506,-1.79539"
         style="fill:none;fill-opacity:1;stroke:#3f0202;stroke-width:3.16499996;stroke-linecap:round;stroke-linejoin:miter;stroke-miterlimit:4;stroke-dasharray:none;stroke-opacity:1" />
      <path
         sodipodi:nodetypes="cc"
         inkscape:connector-curvature="0"
         id="path862-4"
         d="m 120.12936,120.18842 c -2.83462,-7.55002 -8.77,-5.44219 -15.19948,-1.79539"
         style="fill:none;fill-opacity:1;stroke:#3f0202;stroke-width:3.10618663;stroke-linecap:round;stroke-linejoin:miter;stroke-miterlimit:4;stroke-dasharray:none;stroke-opacity:1" />
      <path
         inkscape:connector-curvature="0"
         id="path879"
         d="m 67.941218,127.0997 9.07143,-0.66146"
         style="fill:none;stroke:#e60808;stroke-width:1.36500001;stroke-linecap:round;stroke-linejoin:miter;stroke-miterlimit:4;stroke-dasharray:none;stroke-opacity:1" />
      <path
         inkscape:transform-center-y="-3.168437"
         inkscape:transform-center-x="1.7049245"
         inkscape:connector-curvature="0"
         id="path879-0"
         d="m 70.947448,133.22288 6.100361,-2.61529"
         style="fill:none;stroke:#e60808;stroke-width:1.47000003;stroke-linecap:round;stroke-linejoin:miter;stroke-miterlimit:4;stroke-dasharray:none;stroke-opacity:1" />
      <path
         inkscape:connector-curvature="0"
         id="path879-4"
         d="m 128.92154,127.31597 -10.73201,-0.65049"
         style="fill:none;stroke:#e60808;stroke-width:1.47232449;stroke-linecap:round;stroke-linejoin:miter;stroke-miterlimit:4;stroke-dasharray:none;stroke-opacity:1" />
      <path
         inkscape:transform-center-y="-3.1158873"
         inkscape:transform-center-x="-2.0170196"
         inkscape:connector-curvature="0"
         id="path879-0-1"
         d="m 125.365,133.33759 -7.21706,-2.57191"
         style="fill:none;stroke:#e60808;stroke-width:1.58558035;stroke-linecap:round;stroke-linejoin:miter;stroke-miterlimit:4;stroke-dasharray:none;stroke-opacity:1" />
      <path
         sodipodi:nodetypes="sssss"
         inkscape:connector-curvature="0"
         id="path914"
         d="m 101.00601,125.20002 c -0.75031,0.70294 -1.41295,1.64639 -3.474805,1.76224 -1.798819,0.10107 -2.808926,-1.11743 -3.758288,-2.11659 -1.478991,-1.55657 1.719569,-2.03013 3.5693,-2.04573 1.961717,-0.0165 5.837773,0.36336 3.663793,2.40008 z"
         style="opacity:1;fill:#3f0202;fill-opacity:1;stroke:#3f0202;stroke-width:0.99306107;stroke-linecap:round;stroke-linejoin:round;stroke-miterlimit:4;stroke-dasharray:none;stroke-opacity:1" />
      <path
         sodipodi:nodetypes="ssssss"
         inkscape:connector-curvature="0"
         id="path919"
         d="m 103.79696,133.26168 c 2.49017,-0.91583 3.41706,5.23457 1.75619,6.5609 -1.66086,1.32633 -5.843954,0.31532 -7.865201,-1.40348 -2.109079,-1.79348 -2.105576,-2.7868 -2.252285,-3.4426 -0.03242,-0.14492 0.806736,-5.31748 3.714926,-2.94045 0.94924,0.77586 3.11697,1.78811 4.64637,1.22563 z"
         style="opacity:1;fill:#fcadad;fill-opacity:1;stroke:none;stroke-width:1.47346759;stroke-linecap:round;stroke-linejoin:round;stroke-miterlimit:4;stroke-dasharray:none;stroke-opacity:1" />
      <path
         sodipodi:nodetypes="csc"
         inkscape:connector-curvature="0"
         id="path922"
         d="m 95.37819,134.03859 c 3.003546,7.1641 8.61648,7.9684 10.6529,5.84985 0.98641,-1.02619 1.5302,-3.75193 -1.61517,-7.23721"
         style="fill:none;stroke:#e60808;stroke-width:1.56500006;stroke-linecap:round;stroke-linejoin:miter;stroke-miterlimit:4;stroke-dasharray:none;stroke-opacity:1" />
      <path
         sodipodi:nodetypes="cc"
         inkscape:connector-curvature="0"
         id="path924"
         d="m 97.685711,130.13382 c 0.802443,3.02665 2.652519,6.38846 5.241929,7.36023"
         style="fill:none;stroke:#e60808;stroke-width:1.26499999;stroke-linecap:round;stroke-linejoin:miter;stroke-miterlimit:4;stroke-dasharray:none;stroke-opacity:1" />
      <path
         sodipodi:nodetypes="cscsc"
         inkscape:connector-curvature="0"
         id="path917"
         d="m 89.131509,129.06045 c 1.098304,2.4258 2.784597,4.40329 4.356245,4.88823 2.309129,0.7125 4.400966,-1.38799 4.053727,-6.28202 0.468342,4.46072 0.493064,6.43354 4.179369,5.86436 1.41117,-0.21789 2.96577,-1.57227 4.56133,-3.80911"
         style="fill:none;stroke:#3f0202;stroke-width:1.46500003;stroke-linecap:round;stroke-linejoin:round;stroke-miterlimit:4;stroke-dasharray:none;stroke-opacity:1" />
      <path
         sodipodi:nodetypes="cccc"
         inkscape:connector-curvature="0"
         id="path926"
         d="m 71.626488,107.16146 c -0.628437,-3.84276 -1.665487,-7.685517 0.09449,-11.528276 3.511759,-1.277884 6.140745,1.661929 8.88244,4.063243 -3.464032,1.440073 -6.308822,4.256243 -8.97693,7.465033 z"
         style="fill:#fcadad;fill-opacity:1;stroke:none;stroke-width:1.36500001;stroke-linecap:butt;stroke-linejoin:miter;stroke-miterlimit:4;stroke-dasharray:none;stroke-opacity:1" />
      <path
         inkscape:transform-center-y="-1.9377041"
         inkscape:transform-center-x="-8.0184125"
         sodipodi:nodetypes="cccc"
         inkscape:connector-curvature="0"
         id="path926-0"
         d="m 123.82313,107.44463 c 0.64735,-3.84276 1.7156,-7.685515 -0.0973,-11.528274 -3.61741,-1.277884 -6.32549,1.661929 -9.14966,4.063243 3.56824,1.440071 6.49862,4.256241 9.24699,7.465031 z"
         style="fill:#fcadad;fill-opacity:1;stroke:none;stroke-width:1.38538063;stroke-linecap:butt;stroke-linejoin:miter;stroke-miterlimit:4;stroke-dasharray:none;stroke-opacity:1" />
    </g>
    <g
       id="g1119"
       transform="matrix(0.76299703,0,0,0.92230552,181.87768,-17.534875)"
       inkscape:export-xdpi="254.2415"
       inkscape:export-ydpi="254.2415">
      <path
         sodipodi:nodetypes="sssssssss"
         inkscape:connector-curvature="0"
         id="path959"
         d="m -24.727987,163.57675 c -1.638591,13.2845 -17.466871,10.039 -26.313775,10.20076 -12.046007,0.22026 -29.118359,1.43357 -27.655679,-11.99058 0.7392,-6.78418 2.621953,-8.12229 5.424393,-9.39024 2.32712,-1.05289 -1.05787,-16.49924 1.76723,-21.85013 4.26669,-8.08135 12.44626,-8.94297 20.08608,-8.90501 5.42943,0.027 13.57009,1.651 17.46637,7.24822 4.73086,6.79612 3.05734,23.93668 4.72724,24.15302 1.63153,0.21138 5.127258,5.43354 4.498141,10.53396 z"
         style="opacity:1;fill:#f8b831;fill-opacity:1;stroke:#180101;stroke-width:1.53552675;stroke-linecap:round;stroke-linejoin:round;stroke-miterlimit:4;stroke-dasharray:none;stroke-opacity:1" />
      <path
         sodipodi:nodetypes="zzsz"
         inkscape:connector-curvature="0"
         id="path962-1"
         d="m -39.459518,144.17091 c 1.19054,2.43358 22.89549,-3.41247 20.70106,-9.26041 -2.19444,-5.84794 -17.4186,-14.89478 -20.04831,-12.47322 -2.39447,2.20493 -1.84327,19.30005 -0.65275,21.73363 z"
         style="fill:#100101;fill-opacity:1;stroke:#000000;stroke-width:0.262833px;stroke-linecap:butt;stroke-linejoin:miter;stroke-opacity:1" />
      <path
         sodipodi:nodetypes="sssss"
         inkscape:connector-curvature="0"
         id="path914-1"
         d="m -49.934103,155.06045 c -0.75031,0.70294 -1.41295,1.64639 -3.4748,1.76224 -1.79882,0.10107 -2.80893,-1.11743 -3.75829,-2.11659 -1.47899,-1.55657 1.71957,-2.03013 3.5693,-2.04573 1.96171,-0.0165 5.83777,0.36336 3.66379,2.40008 z"
         style="opacity:1;fill:#180101;fill-opacity:1;stroke:#180101;stroke-width:0.99306107;stroke-linecap:round;stroke-linejoin:round;stroke-miterlimit:4;stroke-dasharray:none;stroke-opacity:1" />
      <path
         sodipodi:nodetypes="ccc"
         inkscape:connector-curvature="0"
         id="path917-7"
         d="m -61.808603,158.92088 c 1.837087,7.77851 9.954526,5.24891 8.40997,-1.39379 0.75744,9.35421 9.513186,5.53787 8.7407,2.05525"
         style="fill:none;stroke:#180101;stroke-width:1.46500003;stroke-linecap:round;stroke-linejoin:round;stroke-miterlimit:4;stroke-dasharray:none;stroke-opacity:1" />
      <path
         inkscape:connector-curvature="0"
         id="path1050"
         d="m -53.210219,160.66311 a 4.3932424,4.4767648 0 0 0 -0.522449,0.0713 5.9133382,4.2930164 0 0 1 -3.314525,2.98948 4.3932424,4.4767648 0 0 0 -0.223242,1.39733 4.3932424,4.4767648 0 0 0 4.39353,4.47725 4.3932424,4.4767648 0 0 0 4.393012,-4.47725 4.3932424,4.4767648 0 0 0 -0.227375,-1.40921 5.9133382,4.2930164 0 0 1 -4.498951,-3.04891 z"
         style="opacity:1;fill:#670606;fill-opacity:1;stroke:#180101;stroke-width:1.07299995;stroke-linecap:round;stroke-linejoin:round;stroke-miterlimit:4;stroke-dasharray:none;stroke-opacity:1" />
      <path
         sodipodi:nodetypes="cc"
         inkscape:connector-curvature="0"
         id="path1072"
         d="m -53.210219,160.66311 c 0.188912,1.90346 1.070815,3.68092 0.391078,5.74232"
         style="fill:#180101;fill-opacity:1;stroke:#180101;stroke-width:0.565;stroke-linecap:round;stroke-linejoin:miter;stroke-miterlimit:4;stroke-dasharray:none;stroke-opacity:1" />
      <path
         inkscape:connector-curvature="0"
         id="path959-2"
         d="m -66.648449,126.20382 c -1.56311,1.23688 -2.941399,2.84825 -4.052466,4.95267 -2.825099,5.35089 0.560302,20.79694 -1.766816,21.84983 -0.797079,0.36063 -1.703454,0.91814 -2.609144,1.67638 a 16.728563,14.857675 0 0 0 6.287471,1.09916 16.728563,14.857675 0 0 0 16.728694,-14.85801 16.728563,14.857675 0 0 0 -14.587739,-14.72003 z"
         style="opacity:1;fill:#f88331;fill-opacity:1;stroke:none;stroke-width:1.53552687;stroke-linecap:round;stroke-linejoin:round;stroke-miterlimit:4;stroke-dasharray:none;stroke-opacity:1" />
      <path
         sodipodi:nodetypes="zzsz"
         inkscape:connector-curvature="0"
         id="path962"
         d="m -62.674748,144.44162 c -1.20644,2.43358 -23.20144,-3.41247 -20.97768,-9.26041 2.22376,-5.84794 17.65137,-14.89479 20.31622,-12.47322 2.42645,2.20493 1.8679,19.30005 0.66146,21.73363 z"
         style="fill:#100101;fill-opacity:1;stroke:#000000;stroke-width:0.26458332px;stroke-linecap:butt;stroke-linejoin:miter;stroke-opacity:1" />
      <ellipse
         ry="3.4962797"
         rx="3.1183035"
         cy="148.92783"
         cx="-61.704613"
         id="path1092"
         style="opacity:1;fill:#000000;fill-opacity:1;stroke:none;stroke-width:0.56499994;stroke-linecap:round;stroke-linejoin:round;stroke-miterlimit:4;stroke-dasharray:none;stroke-opacity:1" />
      <ellipse
         ry="3.4962797"
         rx="3.1183035"
         cy="149.02232"
         cx="-43.278275"
         id="path1092-2"
         style="opacity:1;fill:#000000;fill-opacity:1;stroke:none;stroke-width:0.565;stroke-linecap:round;stroke-linejoin:round;stroke-miterlimit:4;stroke-dasharray:none;stroke-opacity:1" />
    </g>
    <g
       id="g913"
       transform="translate(11.079799)">
      <path
         inkscape:connector-curvature="0"
         id="path1146"
         d="m 56.900283,182.59376 -4.067,-5.49016 -5.156369,2.13903 6.173121,7.05877 z"
         style="fill:#ffab40;fill-opacity:1;stroke:#3b2314;stroke-width:0.90050596;stroke-linecap:round;stroke-linejoin:round;stroke-miterlimit:4;stroke-dasharray:none;stroke-opacity:1" />
      <path
         sodipodi:nodetypes="sssss"
         inkscape:connector-curvature="0"
         id="path1121"
         d="m 77.179099,195.415 c 3.110242,11.28342 -7.085586,15.35553 -16.022319,15.32684 -8.896521,-0.0286 -18.461852,-4.22751 -16.022322,-15.32684 1.818624,-8.27433 7.173437,-15.32684 16.022322,-15.32684 8.848882,0 13.770043,7.15598 16.022319,15.32684 z"
         style="opacity:1;fill:#d4d4d4;fill-opacity:1;stroke:#3b2314;stroke-width:1.10231066;stroke-linecap:round;stroke-linejoin:round;stroke-miterlimit:4;stroke-dasharray:none;stroke-opacity:1" />
      <path
         sodipodi:nodetypes="cscc"
         inkscape:connector-curvature="0"
         id="path1148"
         d="m 66.260438,180.81529 c 0,0 3.14676,-17.55564 11.554558,-18.75521 15.425023,-2.20073 -3.340055,25.92558 -3.478151,25.86901 -1.929832,-3.11967 -4.317595,-5.78976 -8.076407,-7.1138 z"
         style="fill:#d4d4d4;fill-opacity:1;stroke:#3b2314;stroke-width:0.82435322;stroke-linecap:round;stroke-linejoin:round;stroke-miterlimit:4;stroke-dasharray:none;stroke-opacity:1" />
      <path
         sodipodi:nodetypes="cccccc"
         inkscape:connector-curvature="0"
         id="path1124-5"
         d="m 79.387467,164.31919 c -3.665339,0.31711 -7.247251,6.12957 -9.23019,13.47547 -0.386604,1.43803 -0.676669,2.89466 -0.861402,4.32574 1.909546,1.41113 3.54102,3.45926 5.04097,5.80869 6.415669,-8.83123 10.091845,-17.78685 8.571943,-21.68586 -1.167056,-1.32643 -1.893793,-2.05436 -3.521321,-1.92404 z"
         style="fill:#ffab40;fill-opacity:1;stroke:#3b2314;stroke-width:1.09621847;stroke-linecap:round;stroke-linejoin:round;stroke-miterlimit:4;stroke-dasharray:none;stroke-opacity:1" />
      <path
         sodipodi:nodetypes="csc"
         inkscape:connector-curvature="0"
         id="path1144"
         d="m 52.833283,177.1036 c -11.143155,4.58414 -22.503025,11.23334 -15.977485,20.60591 5.895166,8.46718 11.329911,-10.14889 15.977485,-20.60591 z"
         style="fill:#d4d4d4;fill-opacity:1;stroke:#3b2314;stroke-width:1.12896407;stroke-linecap:round;stroke-linejoin:round;stroke-miterlimit:4;stroke-dasharray:none;stroke-opacity:1" />
      <ellipse
         ry="1.0873361"
         rx="2.3603108"
         cy="198.40346"
         cx="61.198433"
         id="path1150"
         style="opacity:1;fill:#3b2314;fill-opacity:1;stroke:#3b2314;stroke-width:1.09621847;stroke-linecap:round;stroke-linejoin:round;stroke-miterlimit:4;stroke-dasharray:none;stroke-opacity:1" />
      <path
         sodipodi:nodetypes="ccsccc"
         inkscape:connector-curvature="0"
         id="rect1154"
         d="m 60.341101,201.53394 c -0.309767,0.45269 -0.865976,0.81093 -1.557093,1.00289 -0.280204,3.31133 0.0822,4.15747 2.362355,4.12482 1.306307,-0.0187 2.851813,-0.18311 2.213504,-4.00726 -0.802228,-0.19268 -1.441196,-0.60019 -1.756873,-1.12045 z"
         style="opacity:1;fill:#dbc80d;fill-opacity:1;stroke:#3b2314;stroke-width:1.0466665;stroke-linecap:round;stroke-linejoin:round;stroke-miterlimit:4;stroke-dasharray:none;stroke-opacity:1" />
      <path
         sodipodi:nodetypes="ccc"
         inkscape:connector-curvature="0"
         id="path1152"
         d="m 54.91639,201.66548 c 2.196728,0.18425 4.519901,1.39264 6.35468,-1.35472 0.905832,2.40669 3.318754,1.76169 5.737363,1.10516"
         style="fill:none;stroke:#3b2314;stroke-width:1.01473498;stroke-linecap:round;stroke-linejoin:round;stroke-miterlimit:4;stroke-dasharray:none;stroke-opacity:1" />
      <path
         sodipodi:nodetypes="cc"
         inkscape:connector-curvature="0"
         id="path1175"
         d="m 61.089512,206.30002 0.05046,-5.15823"
         style="fill:none;stroke:#3b2314;stroke-width:0.29128414;stroke-linecap:butt;stroke-linejoin:miter;stroke-miterlimit:4;stroke-dasharray:none;stroke-opacity:1" />
      <path
         sodipodi:nodetypes="cc"
         inkscape:connector-curvature="0"
         id="path1177"
         d="m 51.059778,201.3351 c 1.722546,-0.7409 3.457373,-1.314 5.238068,-1.26043"
         style="fill:none;stroke:#3b2314;stroke-width:0.78627688;stroke-linecap:round;stroke-linejoin:round;stroke-miterlimit:4;stroke-dasharray:none;stroke-opacity:1" />
      <path
         sodipodi:nodetypes="cc"
         inkscape:connector-curvature="0"
         id="path1179"
         d="m 50.957067,197.60423 c 1.978728,0.0671 3.855021,0.41512 5.494838,1.41168"
         style="fill:none;stroke:#3b2314;stroke-width:0.78627688;stroke-linecap:round;stroke-linejoin:round;stroke-miterlimit:4;stroke-dasharray:none;stroke-opacity:1" />
      <path
         sodipodi:nodetypes="cc"
         inkscape:connector-curvature="0"
         id="path1181"
         d="m 65.746905,200.12509 c 1.904653,-0.21086 3.639308,0.4406 5.340768,1.26043"
         style="fill:none;stroke:#3b2314;stroke-width:0.78627688;stroke-linecap:round;stroke-linejoin:round;stroke-miterlimit:4;stroke-dasharray:none;stroke-opacity:1" />
      <path
         sodipodi:nodetypes="cc"
         inkscape:connector-curvature="0"
         id="path1183"
         d="m 65.79826,199.06633 c 1.677454,-1.22353 3.477194,-1.2765 5.289413,-1.21001"
         style="fill:none;stroke:#3b2314;stroke-width:0.78627688;stroke-linecap:round;stroke-linejoin:round;stroke-miterlimit:4;stroke-dasharray:none;stroke-opacity:1" />
      <path
         sodipodi:nodetypes="cc"
         inkscape:connector-curvature="0"
         id="path1185"
         d="m 51.932789,189.53747 c 0.640239,-0.62424 1.521169,-1.98518 4.21099,-0.70584"
         style="fill:none;stroke:#3b2314;stroke-width:0.78627688;stroke-linecap:round;stroke-linejoin:round;stroke-miterlimit:4;stroke-dasharray:none;stroke-opacity:1" />
      <ellipse
         ry="2.3191924"
         rx="2.4906492"
         cy="193.72209"
         cx="54.320717"
         id="path1187"
         style="opacity:1;fill:#3b2314;fill-opacity:1;stroke:none;stroke-width:0.29128414;stroke-linecap:round;stroke-linejoin:round;stroke-miterlimit:4;stroke-dasharray:none;stroke-opacity:1" />
      <path
         sodipodi:nodetypes="cc"
         inkscape:connector-curvature="0"
         id="path1185-8"
         d="m 68.83623,189.36492 c -0.585098,-0.62425 -1.390152,-1.98519 -3.8483,-0.70584"
         style="fill:none;stroke:#3b2314;stroke-width:0.75165373;stroke-linecap:round;stroke-linejoin:round;stroke-miterlimit:4;stroke-dasharray:none;stroke-opacity:1" />
      <ellipse
         transform="scale(-1,1)"
         ry="2.3191924"
         rx="2.2761304"
         cy="193.54953"
         cx="-66.653969"
         id="path1187-0"
         style="opacity:1;fill:#3b2314;fill-opacity:1;stroke:none;stroke-width:0.27845764;stroke-linecap:round;stroke-linejoin:round;stroke-miterlimit:4;stroke-dasharray:none;stroke-opacity:1" />
    </g>
    <g
       id="g1410"
       transform="matrix(0.33020374,0,0,0.39601633,202.91045,105.68699)"
       inkscape:export-xdpi="254.2415"
       inkscape:export-ydpi="254.2415">
      <path
         transform="scale(0.26458333)"
         id="path1226"
         d="m -617.70508,668.92383 c -0.84254,0.29192 -1.68579,0.59266 -2.5293,0.90234 -105.60616,38.77247 -211.60337,83.10502 -212.27734,158.73828 -0.58037,65.13033 96.27597,125.93975 208.92969,157.78125 a 272.74119,291.93407 0 0 1 -41.09766,-153.74023 272.74119,291.93407 0 0 1 46.97461,-163.68164 z"
         style="opacity:1;fill:#fce431;fill-opacity:1;stroke:#3b2314;stroke-width:5.6692915;stroke-linecap:round;stroke-linejoin:round;stroke-miterlimit:4;stroke-dasharray:none;stroke-opacity:1"
         inkscape:connector-curvature="0" />
      <path
         inkscape:connector-curvature="0"
         id="path1226-7"
         d="m -152.01139,174.96915 c -3.72849,0.0409 -7.55585,0.67704 -11.42308,2.01694 a 72.162772,77.240888 0 0 0 -12.4287,43.30743 72.162772,77.240888 0 0 0 10.87376,40.67709 c 0.29581,0.0836 0.58912,0.17164 0.88573,0.25374 29.89531,8.2741 56.16558,-18.8041 56.16557,-42.00001 0,-19.934 -19.97467,-44.51969 -44.07328,-44.25519 z"
         style="opacity:1;fill:#fba945;fill-opacity:1;stroke:#3b2314;stroke-width:1.5;stroke-linecap:round;stroke-linejoin:round;stroke-miterlimit:4;stroke-dasharray:none;stroke-opacity:1" />
      <path
         inkscape:connector-curvature="0"
         id="path1251"
         d="m -177.93715,188.78319 a 8.2853555,7.216277 13.540666 0 0 -9.74452,5.07563 8.2853555,7.216277 13.540666 0 0 6.36544,8.95539 8.2853555,7.216277 13.540666 0 0 3.07608,0.22043 8.2853555,7.216277 13.540666 0 1 -4.27165,-8.17207 8.2853555,7.216277 13.540666 0 1 6.66856,-5.29659 8.2853555,7.216277 13.540666 0 0 -2.09391,-0.78279 z"
         style="opacity:1;fill:#fba945;fill-opacity:1;stroke:none;stroke-width:2.06499982;stroke-linecap:round;stroke-linejoin:round;stroke-miterlimit:4;stroke-dasharray:none;stroke-opacity:1" />
      <path
         inkscape:connector-curvature="0"
         id="path1251-2"
         d="m -183.72072,213.43272 a 8.2853556,7.2162771 0 0 0 -8.28528,7.21609 8.2853556,7.2162771 0 0 0 8.28528,7.21609 8.2853556,7.2162771 0 0 0 3.04219,-0.50591 8.2853556,7.2162771 0 0 1 -6.06629,-6.94478 8.2853556,7.2162771 0 0 1 5.24308,-6.71071 8.2853556,7.2162771 0 0 0 -2.21898,-0.27078 z"
         style="opacity:1;fill:#fba945;fill-opacity:1;stroke:none;stroke-width:2.06499982;stroke-linecap:round;stroke-linejoin:round;stroke-miterlimit:4;stroke-dasharray:none;stroke-opacity:1" />
      <path
         inkscape:connector-curvature="0"
         id="path1251-8"
         d="m -184.19753,233.21913 a 7.2162771,8.2853556 74.762343 0 0 -6.09745,9.13996 7.2162771,8.2853556 74.762343 0 0 9.89056,4.78484 7.2162771,8.2853556 74.762343 0 0 2.80228,-1.28769 7.2162771,8.2853556 74.762343 0 1 -7.67828,-5.10626 7.2162771,8.2853556 74.762343 0 1 3.29503,-7.85279 7.2162771,8.2853556 74.762343 0 0 -2.21214,0.32194 z"
         style="opacity:1;fill:#fba945;fill-opacity:1;stroke:none;stroke-width:2.06499982;stroke-linecap:round;stroke-linejoin:round;stroke-miterlimit:4;stroke-dasharray:none;stroke-opacity:1" />
      <path
         inkscape:connector-curvature="0"
         id="path1251-1"
         d="m -194.32671,198.34108 a 8.2853556,7.2162771 7.5236725 0 0 -9.1588,6.06912 8.2853556,7.2162771 7.5236725 0 0 7.26911,8.23881 8.2853556,7.2162771 7.5236725 0 0 3.08224,-0.10322 8.2853556,7.2162771 7.5236725 0 1 -5.10475,-7.67929 8.2853556,7.2162771 7.5236725 0 1 6.07662,-5.96643 8.2853556,7.2162771 7.5236725 0 0 -2.16442,-0.55899 z"
         style="opacity:1;fill:#fba945;fill-opacity:1;stroke:none;stroke-width:2.06499982;stroke-linecap:round;stroke-linejoin:round;stroke-miterlimit:4;stroke-dasharray:none;stroke-opacity:1" />
      <path
         inkscape:connector-curvature="0"
         id="path1251-6"
         d="m -198.79082,222.67114 a 7.2162771,8.2853556 77.289703 0 0 -6.49455,8.8622 7.2162771,8.2853556 77.289703 0 0 9.66994,5.21632 7.2162771,8.2853556 77.289703 0 0 2.85633,-1.16286 7.2162771,8.2853556 77.289703 0 1 -7.44563,-5.43988 7.2162771,8.2853556 77.289703 0 1 3.6381,-7.69985 7.2162771,8.2853556 77.289703 0 0 -2.22419,0.22407 z"
         style="opacity:1;fill:#fba945;fill-opacity:1;stroke:none;stroke-width:2.06499982;stroke-linecap:round;stroke-linejoin:round;stroke-miterlimit:4;stroke-dasharray:none;stroke-opacity:1" />
      <path
         inkscape:connector-curvature="0"
         id="path1251-25"
         d="m -208.85613,211.35385 a 8.2853556,7.2162771 0 0 0 -8.28528,7.21609 8.2853556,7.2162771 0 0 0 8.28528,7.21609 8.2853556,7.2162771 0 0 0 3.04219,-0.50591 8.2853556,7.2162771 0 0 1 -6.06629,-6.94478 8.2853556,7.2162771 0 0 1 5.24308,-6.71071 8.2853556,7.2162771 0 0 0 -2.21898,-0.27078 z"
         style="opacity:1;fill:#fba945;fill-opacity:1;stroke:none;stroke-width:2.06499982;stroke-linecap:round;stroke-linejoin:round;stroke-miterlimit:4;stroke-dasharray:none;stroke-opacity:1" />
      <path
         inkscape:connector-curvature="0"
         id="path1308"
         d="m -256.04115,174.53552 c 14.87728,18.42805 4.38344,36.35621 25.89145,41.19954 -21.1475,15.6455 -15.30448,37.08387 -26.83609,44.03402 39.55328,-3.53832 30.91503,-16.5958 42.7948,-25.6005 -3.98552,-4.77337 -6.24553,-9.82281 -6.19962,-14.97481 0.058,-6.50642 3.06379,-12.13654 8.05222,-17.12608 -7.77107,-18.41375 -22.92692,-26.79157 -43.70276,-27.53217 z"
         style="fill:#fba945;fill-opacity:1;stroke:#3b2314;stroke-width:1.5;stroke-linecap:butt;stroke-linejoin:miter;stroke-miterlimit:4;stroke-dasharray:none;stroke-opacity:1" />
      <path
         sodipodi:nodetypes="cc"
         inkscape:connector-curvature="0"
         id="path1326"
         d="m -246.15523,178.5996 c 11.62588,4.80003 19.87629,12.69424 27.26149,21.38156"
         style="fill:none;stroke:#fce431;stroke-width:1.31900001;stroke-linecap:round;stroke-linejoin:miter;stroke-miterlimit:4;stroke-dasharray:none;stroke-opacity:1" />
      <path
         sodipodi:nodetypes="cc"
         inkscape:connector-curvature="0"
         id="path1328"
         d="m -243.48254,195.43758 c 6.11157,1.43434 11.61659,4.53667 16.30345,9.88897"
         style="fill:none;stroke:#fce431;stroke-width:1.31900001;stroke-linecap:round;stroke-linejoin:miter;stroke-miterlimit:4;stroke-dasharray:none;stroke-opacity:1" />
      <path
         sodipodi:nodetypes="cc"
         inkscape:connector-curvature="0"
         id="path1330"
         d="m -221.0319,233.92439 c -5.68435,9.27844 -12.86732,14.36071 -20.31248,18.70886"
         style="fill:none;stroke:#fce431;stroke-width:1.31900001;stroke-linecap:round;stroke-linejoin:miter;stroke-miterlimit:4;stroke-dasharray:none;stroke-opacity:1" />
      <path
         sodipodi:nodetypes="cc"
         inkscape:connector-curvature="0"
         id="path1332"
         d="m -231.98995,231.51896 c -1.56959,4.77639 -5.93007,7.16058 -9.88897,9.88898"
         style="fill:none;stroke:#fce431;stroke-width:1.31900001;stroke-linecap:round;stroke-linejoin:miter;stroke-miterlimit:4;stroke-dasharray:none;stroke-opacity:1" />
      <path
         inkscape:connector-curvature="0"
         id="path1334"
         d="m -175.56792,155.4736 c -2.37093,15.65666 -5.24873,14.8786 -7.98556,28.68609 5.89492,-2.49044 12.08722,-4.83597 18.27589,-7.10808 0.22318,-0.0819 0.44629,-0.16155 0.66921,-0.23873 3.86723,-1.33991 7.69458,-1.97604 11.42307,-2.01695 3.33551,-0.0366 6.59107,0.405 9.72654,1.2423 -10.07669,-11.17108 -25.3436,-11.56549 -32.10915,-20.56463 z"
         style="fill:#fce431;fill-opacity:1;stroke:#3b2314;stroke-width:1.5;stroke-linecap:butt;stroke-linejoin:miter;stroke-miterlimit:4;stroke-dasharray:none;stroke-opacity:1" />
      <path
         sodipodi:nodetypes="cc"
         inkscape:connector-curvature="0"
         id="path1356"
         d="m -167.84526,168.17609 c 2.48644,2.56537 5.10292,5.06572 8.95353,6.949"
         style="fill:none;stroke:#3b2314;stroke-width:1.5;stroke-linecap:round;stroke-linejoin:miter;stroke-miterlimit:4;stroke-dasharray:none;stroke-opacity:1" />
      <path
         sodipodi:nodetypes="cc"
         inkscape:connector-curvature="0"
         id="path1358"
         d="m -172.25521,173.12057 c 1.0494,1.76643 2.60674,3.06725 4.40995,4.14268"
         style="fill:none;stroke:#3b2314;stroke-width:1.5;stroke-linecap:round;stroke-linejoin:miter;stroke-miterlimit:4;stroke-dasharray:none;stroke-opacity:1" />
      <path
         sodipodi:nodetypes="cccc"
         inkscape:connector-curvature="0"
         id="path1360"
         d="m -193.48731,278.63522 c 4.38522,-4.85777 4.85454,-11.94853 0,-22.07517 15.16856,-6.44583 31.94658,-17.09389 40.24464,-5.60118 3.89786,26.88603 -26.82976,18.45089 -40.24464,27.67635 z"
         style="fill:#fce431;fill-opacity:1;stroke:#3b2314;stroke-width:1.76876438;stroke-linecap:butt;stroke-linejoin:miter;stroke-miterlimit:4;stroke-dasharray:none;stroke-opacity:1" />
      <path
         sodipodi:nodetypes="cc"
         inkscape:connector-curvature="0"
         id="path1362"
         d="m -180.67262,261.84821 c 5.07816,-2.57103 10.04702,-5.32703 13.98512,-9.82738"
         style="fill:none;stroke:#3b2314;stroke-width:1.5;stroke-linecap:round;stroke-linejoin:miter;stroke-miterlimit:4;stroke-dasharray:none;stroke-opacity:1" />
      <path
         sodipodi:nodetypes="cc"
         inkscape:connector-curvature="0"
         id="path1364"
         d="m -180.67262,269.40774 c 7.91902,-1.75768 20.09282,-1.84795 15.68321,-8.43713"
         style="fill:none;stroke:#3b2314;stroke-width:1.36500001;stroke-linecap:round;stroke-linejoin:miter;stroke-miterlimit:4;stroke-dasharray:none;stroke-opacity:1" />
      <ellipse
         ry="14.56011"
         rx="10.780349"
         cy="213.86099"
         cx="-137.76675"
         id="path1366"
         style="opacity:1;fill:#000000;fill-opacity:1;stroke:#3b2314;stroke-width:1.10596764;stroke-linecap:round;stroke-linejoin:round;stroke-miterlimit:4;stroke-dasharray:none;stroke-opacity:1" />
      <path
         sodipodi:nodetypes="cszc"
         inkscape:connector-curvature="0"
         id="path1371"
         d="m -124.55299,233.09342 c 6.40863,-0.89683 8.80988,-9.45172 15.368,-7.24969 2.65875,0.89273 3.51125,2.64065 1.9377,6.24742 -1.57355,3.60677 -17.31961,1.01327 -17.3057,1.00227 z"
         style="fill:#ce5f5f;fill-opacity:1;stroke:#000000;stroke-width:0.26458332px;stroke-linecap:butt;stroke-linejoin:miter;stroke-opacity:1" />
      <path
         sodipodi:nodetypes="cszc"
         inkscape:connector-curvature="0"
         id="path1371-3"
         d="m -124.55299,233.09342 c 3.2913,2.89969 5.3751,7.59943 13.29666,6.04518 2.74133,-0.53787 5.45562,-7.93717 2.73951,-6.0217 -2.7161,1.91547 -16.07801,0.40807 -16.03617,-0.0235 z"
         style="fill:#c33c3c;fill-opacity:1;stroke:#000000;stroke-width:0.21653065px;stroke-linecap:butt;stroke-linejoin:miter;stroke-opacity:1" />
    </g>
  </g>
</svg>
